<svg width="139" height="54" viewBox="0 0 139 54" fill="none" xmlns="http://www.w3.org/2000/svg">
<path d="M0 10C0 4.47715 4.47715 0 10 0H129C134.523 0 139 4.47715 139 10V44C139 49.5228 134.523 54 129 54H10C4.47715 54 0 49.5228 0 44V10Z" fill="#3E4586"/>
<path d="M40.072 17.104H49.192V18.76H41.488V29.944H41.8C43.416 29.944 45.064 29.88 46.744 29.752C48.44 29.608 50.008 29.392 51.448 29.104V30.784C50.744 30.928 49.976 31.056 49.144 31.168C48.312 31.28 47.44 31.368 46.528 31.432C45.616 31.512 44.68 31.568 43.72 31.6C42.776 31.632 41.848 31.648 40.936 31.648H40.072C39.864 31.648 39.728 31.616 39.664 31.552C39.6 31.488 39.568 31.36 39.568 31.168V17.608C39.568 17.416 39.6 17.288 39.664 17.224C39.744 17.144 39.88 17.104 40.072 17.104ZM47.416 22.84H53.32V15.856H55.216V37.12H53.32V24.496H47.416V22.84ZM63.1377 26.44H73.5537V22.048H63.1377V26.44ZM75.4497 27.592C75.4497 27.784 75.4097 27.92 75.3297 28C75.2657 28.064 75.1377 28.096 74.9457 28.096H69.3057V32.8H78.1137V34.456H58.5777V32.8H67.3377V28.096H61.7457C61.5537 28.096 61.4177 28.064 61.3377 28C61.2737 27.92 61.2417 27.784 61.2417 27.592V16.72H63.1377V20.44H73.5537V16.72H75.4497V27.592ZM90.4514 17.08C90.6434 17.08 90.7714 17.12 90.8354 17.2C90.9154 17.264 90.9554 17.392 90.9554 17.584C90.8754 19.248 90.5954 20.824 90.1154 22.312C89.6514 23.8 89.0194 25.176 88.2194 26.44C87.4194 27.72 86.4754 28.888 85.3874 29.944C84.2994 30.984 83.0994 31.888 81.7874 32.656L80.2514 31.384C82.7314 30.088 84.7234 28.368 86.2274 26.224C87.7474 24.064 88.6194 21.568 88.8434 18.736H81.4994V17.08H90.4514ZM95.4194 37.12V15.856H97.3394V37.12H95.4194Z" fill="#F5F5F5"/>
</svg>
