<?xml version="1.0" encoding="UTF-8"?>
<svg id="Isolation_Mode" data-name="Isolation Mode" xmlns="http://www.w3.org/2000/svg" viewBox="0 0 841.89 595.28">
  <defs>
    <style>
      .cls-1, .cls-2 {
        fill: none;
      }

      .cls-2 {
        stroke: #040000;
        stroke-linejoin: round;
        stroke-width: 1.5px;
      }

      .cls-3 {
        fill: #040000;
      }

      .cls-4 {
        fill: #f05d51;
      }

      .cls-5 {
        fill: #eac52f;
      }

      .cls-6 {
        fill: #292f6f;
      }

      .cls-7 {
        fill: #252d6b;
      }

      .cls-8 {
        fill: #f5cd25;
      }

      .cls-9 {
        fill: #e25b4f;
      }
    </style>
  </defs>
  <g>
    <g>
      <path class="cls-9" d="M270.41,115.33c.16-.61.29-1.22.38-1.83,2.54-13.35-1.81-20.29-1.96-21.7-.16-1.47-6.32-12.8-6.67-8.65-.35,4.15-1.46,5.44-2.28,7.11-.82,1.67-7.59,7.53-9.4,8.61-.99.59-2.42,2.1-3.52,3.36-2.43,2.39-3.97,5.88-4.67,10.07-1.31,7.95,5.88,15.59,13.94,15.59,7.26,0,12.52-6.29,14.18-12.53h0s0-.02,0-.03Z"/>
      <path class="cls-7" d="M343.9,167.37c-1.39-23.16-11.84-45.19-26.59-62.82-11.28-13.47-25.38-24.33-40.69-32.85-18.3-10.18-38.16-17.72-58.54-22.5-16.38-3.79-33.15-6.05-50.13-6.21-8.39-.12-17.29.3-25.79,3.11-12.83,4.19-27.23,13.7-30.01,29.37-1.02,5.33.96,11.41,3.17,15.75,1.99,4.09,3.41,7.34,3.19,9.86-.1,6.16-7.72,8.56-12.68,8.7-12.66.34-13.13-3.27-26.22,1.86-28.77,10.75-16.62,48.73-5.74,68.49,15.58,28.3,39.14,52.16,67.32,67.98,52.25,29.34,117.68,31.33,166.5-5.41,22.32-16.8,37.79-46.06,36.22-75.33ZM316.41,213.76c-23.02,30.51-58.51,45.77-96.3,45.5-47.51-.34-96.68-19.52-126.31-57.76-10.16-13.12-17.81-28.29-21.49-44.52-2.77-12.18-4.29-29.66,10.42-34.57,12.65-3.88,16.78,3.1,30.82-1.61,12.1-3.08,19.83-16.59,14.01-28.63-2.24-5.65-6.39-9.67-6.16-15.78,1.6-11.89,12.27-19.96,22.5-24.65,7.63-3.46,15.8-4.68,24.06-5.24,16.69-1.23,33.55.16,49.81,4.04,21.56,5.15,42.54,13.37,60.32,26.84,9.18,6.95,17.41,15.15,24.6,24.14,14.55,18.19,24.6,40.05,26.23,63.46.68,9.8-.15,19.74-2.95,29.18-2.06,6.93-5.18,13.83-9.55,19.62Z"/>
      <g>
        <path class="cls-7" d="M138.79,176.59c.83,1.48,2.01,2.66,3.53,3.53,1.53.87,3.12,1.31,4.78,1.31,2.88,0,5.23-.97,7.07-2.91,1.02-1.08,1.72-2.5,2.17-4.22h-18.34c.19.82.44,1.59.79,2.29Z"/>
        <path class="cls-9" d="M137.68,172.33c.06.7.18,1.34.33,1.96h18.34c.36-1.38.57-2.93.57-4.71v-4.48l-19.39,3.97c.03,1.29.08,2.39.15,3.26Z"/>
        <path class="cls-5" d="M137.48,165.33c0,1.41.02,2.64.04,3.74l19.39-3.97v-8.52l-19.43-3v11.74Z"/>
        <path class="cls-7" d="M186.23,121.49l23.62-22.38c2.92-2.79,4.38-5.61,4.38-8.44,0-2.36-.86-4.35-2.58-5.99-1.72-1.64-3.98-2.45-6.77-2.45-2.14,0-3.85.46-5.14,1.37-1.29.92-2.85,2.33-4.68,4.25l-38.15,39.78v-33.63c0-3.97-.9-6.92-2.72-8.87-1.81-1.94-4.18-2.91-7.1-2.91s-5.31.98-7.03,2.94c-1.72,1.96-2.58,4.91-2.58,8.83v59.58l19.43,3v-6.83l15.9-15.25,10.82,12.99c-2.98-7.76,2.88-18.1,6.01-21.12l-3.41-4.89Z"/>
      </g>
      <path class="cls-7" d="M219.83,199.59l-2.56,12.64c6.17-1.87,12.57-7.45,15.35-8.31l1.58,3.11-10.59-28.47s-.03.09-.04.12c-.04.13-.21.16-.29.06-.59-.7-2.41-2.39-2.64-2.62-4.65-4.83-8.49-10.37-12.16-15.95,0,0,10.4-9.24,10.76-18.33.36-9.01-4.9-18.31-13.81-19.91-.17-.03-.34-.04-.51-.04-2.39.04-19.78,1.09-17.46,23.2,0,.06.02.12.03.19.16.94,1.55,8.6,3.61,10.92-4.91,3.3-15.89,10.91-17.6,14.04-2.6,4.76-8.66,11.44-1.89,26.14,7.1,15.4,35.53,17.37,48.21,3.22ZM201.22,135.8s1.99-2.58,4.11.92c2.12,3.5-.09,9.17-3.28,12.03,0,0-4.85-7.7-.83-12.95ZM184.28,189.78c-8.49-13.03,13.13-21.86,13.13-21.86l15.4,20.79c-.78,3.26-20.09,14.03-28.54,1.06Z"/>
      <g>
        <polygon class="cls-1" points="245.88 163.01 248.15 163.55 245.88 163.01 235.26 192.6 264.36 192.6 252.57 160.32 251.87 162.26 252.57 160.32 249.68 152.41 249.04 154.19 249.68 152.41 249.68 152.41 245.88 163.01"/>
        <path class="cls-5" d="M255.2,137.03l-13.07-3.22c-1.41.95-2.65,2.07-3.58,3.45-1.13,1.68-2.19,3.8-3.19,6.34-.41,1.06-.79,2.01-1.15,2.94l16.18,3.86,4.8-13.38Z"/>
        <path class="cls-7" d="M256.59,133.15c-1.82-1.01-4.08-1.53-6.78-1.53s-4.97.52-6.81,1.56c-.32.18-.57.43-.87.63l13.07,3.22,1.39-3.88Z"/>
        <path class="cls-7" d="M292.39,212.86l-25.44-62.84c-1.2-3.14-2.18-5.66-2.96-7.54-.77-1.88-1.73-3.64-2.86-5.28-.06-.08-.14-.14-.19-.22l-8.38,23.34,11.79,32.28h-29.09l10.61-29.59-16.58-3.96-21.4,54.33c-1.02,2.52-1.75,4.49-2.19,5.91-.44,1.42-.66,2.79-.66,4.12,0,2.3.95,4.36,2.86,6.18,1.9,1.82,4.1,2.72,6.58,2.72,2.92,0,5.03-.85,6.31-2.56s2.83-4.99,4.65-9.86l4.65-12.49h39.59l4.65,12.22c.62,1.51,1.36,3.24,2.23,5.21.86,1.97,1.67,3.43,2.42,4.38.75.95,1.68,1.7,2.79,2.26,1.11.55,2.44.83,3.99.83,2.66,0,4.93-.94,6.81-2.82,1.88-1.88,2.82-3.95,2.82-6.21s-1-5.65-2.99-10.43Z"/>
        <path class="cls-9" d="M249.68,152.41h0s.72-2,.72-2l-16.18-3.86c-.51,1.31-.99,2.54-1.41,3.6l-3.51,8.9,16.58,3.96,3.8-10.6Z"/>
      </g>
    </g>
    <g>
      <path class="cls-7" d="M107.13,256.35l-6.75,10.37,19.74-4.6c.95-.22,1.72-.35,2.3-.37s1.2.18,1.86.61c.86.56,1.39,1.27,1.59,2.12s.07,1.64-.41,2.36c-.57.87-1.58,1.45-3.05,1.72l-11.77,2.15.56,17.48c.05,1.22.02,2.24-.09,3.06s-.36,1.52-.75,2.11c-.43.66-1.06,1.06-1.89,1.21s-1.69-.07-2.58-.65c-.83-.54-1.4-1.16-1.69-1.86s-.43-1.46-.4-2.29c.02-.83.05-1.58.08-2.24l.02-15.5-7.96,1.51-3.98,6.11c-.81,1.24-1.69,1.97-2.64,2.2-.95.23-1.88.06-2.76-.52-.51-.33-.91-.79-1.21-1.36s-.42-1.17-.38-1.8c.06-.5.23-1.01.51-1.53s.73-1.26,1.35-2.2l14.32-21.98c.79-1.21,1.64-1.94,2.57-2.2.93-.26,1.84-.09,2.76.5s1.44,1.36,1.6,2.32c.17.96-.15,2.05-.94,3.28Z"/>
      <path class="cls-7" d="M130.6,273.26c-.84-.37-1.43-.95-1.8-1.73s-.34-1.64.08-2.57c.38-.85,1-1.41,1.85-1.69.85-.28,1.68-.24,2.49.12s1.35.9,1.73,1.67.35,1.63-.07,2.58-1.03,1.51-1.85,1.77-1.63.21-2.44-.15ZM130.79,280.78l-7.75,17.34c-.54,1.2-1.23,1.98-2.07,2.34-.85.36-1.71.34-2.59-.05s-1.45-1.03-1.72-1.9c-.27-.88-.14-1.9.38-3.07l7.67-17.16c.53-1.19,1.2-1.96,2.02-2.31s1.67-.34,2.55.06,1.47,1.02,1.77,1.87.22,1.82-.26,2.89Z"/>
      <path class="cls-7" d="M146.46,306.09l.22-.61c-1.17.66-2.26,1.15-3.28,1.46-1.02.31-2.06.46-3.11.43s-2.14-.23-3.26-.63c-1.48-.52-2.75-1.32-3.79-2.4s-1.82-2.36-2.33-3.85-.73-3.11-.65-4.85c.08-1.74.44-3.53,1.09-5.36,1.37-3.87,3.38-6.56,6.03-8.05,2.65-1.5,5.53-1.7,8.61-.61,1.79.63,3.18,1.47,4.19,2.51s1.87,2.41,2.59,4.09l3.23-9.15c.45-1.27,1.04-2.14,1.78-2.61.74-.47,1.57-.54,2.51-.21s1.56.88,1.85,1.66.24,1.75-.17,2.91l-9.64,27.33c-.42,1.18-1,1.97-1.75,2.37s-1.56.44-2.42.14-1.44-.85-1.78-1.66-.3-1.78.1-2.91ZM137.48,292.68c-.59,1.68-.84,3.2-.73,4.57.11,1.36.51,2.51,1.2,3.42s1.58,1.57,2.66,1.95,2.18.45,3.28.2c1.1-.25,2.13-.87,3.08-1.85.95-.98,1.74-2.35,2.36-4.11.58-1.65.81-3.16.7-4.54-.12-1.38-.52-2.54-1.22-3.49s-1.59-1.62-2.67-2-2.26-.44-3.38-.11c-1.12.33-2.14,1.01-3.05,2.04-.92,1.03-1.65,2.34-2.22,3.93Z"/>
      <path class="cls-7" d="M180.8,308.45c-.39,1.77-1.16,3.19-2.3,4.26-1.14,1.07-2.63,1.74-4.45,2.02-1.83.28-3.95.15-6.36-.39-2.3-.51-4.2-1.3-5.69-2.37s-2.51-2.22-3.06-3.45-.71-2.38-.47-3.44c.16-.7.54-1.25,1.15-1.64s1.3-.5,2.07-.33c.67.15,1.15.43,1.44.84s.53.95.73,1.62c.4,1.29,1,2.32,1.79,3.08.79.77,1.98,1.33,3.56,1.68,1.28.28,2.4.23,3.35-.16s1.51-.95,1.67-1.69c.25-1.13,0-2.04-.73-2.75s-2.04-1.51-3.89-2.42c-2.09-1.04-3.76-2.01-5.01-2.92-1.25-.91-2.18-1.95-2.8-3.12-.61-1.17-.76-2.48-.44-3.92.28-1.28.94-2.41,1.96-3.39s2.36-1.64,4-1.99,3.53-.29,5.64.18c1.66.37,3.11.87,4.36,1.51s2.25,1.34,3.01,2.12,1.29,1.57,1.59,2.37.38,1.55.23,2.22c-.16.74-.54,1.28-1.14,1.65-.6.36-1.35.44-2.26.24-.66-.15-1.18-.46-1.56-.94s-.78-1.16-1.21-2.04c-.35-.73-.81-1.36-1.38-1.88-.57-.52-1.43-.91-2.55-1.16s-2.18-.22-3.05.1-1.4.85-1.56,1.59c-.15.67.01,1.29.48,1.84s1.15,1.08,2.04,1.57,2.13,1.13,3.72,1.91c1.88.93,3.38,1.87,4.49,2.82,1.11.95,1.89,1.96,2.34,3.02s.54,2.18.28,3.35Z"/>
      <path class="cls-9" d="M200.09,292.81c-.04-1.49.32-2.86,1.06-4.11.75-1.25,1.86-2.25,3.35-3.01,1.49-.76,3.25-1.17,5.29-1.22s3.78.28,5.27,1c1.5.72,2.62,1.67,3.38,2.87s1.16,2.46,1.19,3.77c.05,1.8-.51,3.38-1.66,4.74s-2.87,2.76-5.14,4.2c.83.93,1.59,1.8,2.31,2.61s1.4,1.58,2.06,2.28c.66.71,1.26,1.31,1.8,1.81.23-.46.58-1.31,1.05-2.55s.92-2.15,1.35-2.71,1.04-.85,1.84-.87c.75-.02,1.43.23,2.02.75s.9,1.17.92,1.94c.02.71-.2,1.71-.67,3.01s-1.15,2.75-2.06,4.35c.61.5,1.57,1.25,2.89,2.26,1.32,1.01,2.13,1.7,2.44,2.07s.47.87.48,1.49c.02.83-.26,1.54-.85,2.13-.59.58-1.25.89-1.99.91s-1.49-.2-2.21-.67-2.25-1.6-4.59-3.42c-1.02,1.01-2.08,1.83-3.17,2.49-1.1.65-2.28,1.15-3.55,1.49s-2.69.53-4.26.57c-2.01.05-3.81-.2-5.42-.74-1.61-.54-2.96-1.3-4.04-2.27-1.08-.97-1.9-2.05-2.44-3.25s-.83-2.42-.86-3.67.13-2.31.49-3.32.88-1.93,1.55-2.76,1.52-1.62,2.52-2.38,2.16-1.5,3.49-2.22c-1.24-1.48-2.19-2.8-2.83-3.96s-.99-2.37-1.02-3.62ZM207.2,304.16c-1.61.99-2.81,1.97-3.6,2.93-.79.97-1.16,2.1-1.13,3.4.02.74.19,1.44.5,2.11s.76,1.28,1.35,1.84,1.26.99,2.02,1.27c.76.29,1.56.42,2.39.4s1.61-.17,2.37-.45c.76-.28,1.48-.66,2.16-1.15s1.38-1.1,2.1-1.82c-1.46-1.28-2.78-2.55-3.95-3.81-1.17-1.26-2.58-2.84-4.21-4.72ZM209.48,297.5c1.61-1.08,2.77-1.99,3.48-2.73.71-.73,1.05-1.6,1.03-2.61-.03-.99-.41-1.82-1.16-2.47s-1.67-.97-2.78-.94-2.02.4-2.75,1.11c-.73.71-1.08,1.53-1.06,2.46.01.48.17.99.46,1.54s.66,1.09,1.09,1.62.99,1.21,1.69,2.03Z"/>
      <path class="cls-7" d="M267.41,312.75l-2.03-4.28-14.3,1.15-1.32,4.65c-.51,1.81-.98,3.04-1.39,3.7s-1.15,1.02-2.21,1.11c-.9.07-1.71-.19-2.45-.79s-1.14-1.32-1.21-2.15c-.04-.48,0-.98.12-1.51s.33-1.26.62-2.2l7.16-23.56c.2-.68.45-1.49.73-2.44.29-.95.61-1.74.97-2.38s.86-1.18,1.49-1.6c.63-.43,1.44-.68,2.41-.76s1.83.04,2.53.36c.69.32,1.27.76,1.72,1.32s.85,1.17,1.18,1.82.76,1.54,1.29,2.64l11.01,21.96c.86,1.67,1.32,2.9,1.38,3.68.07.82-.21,1.59-.84,2.32-.63.73-1.42,1.14-2.38,1.22-.56.04-1.05-.02-1.46-.18s-.77-.41-1.07-.73-.63-.83-1-1.51c-.37-.69-.69-1.29-.95-1.82ZM252.52,304.12l10.51-.84-6.47-14.09-4.04,14.93Z"/>
      <path class="cls-7" d="M285.62,303.79l2.01,5.11c.49,1.24.56,2.28.23,3.13-.34.85-.96,1.45-1.85,1.8s-1.73.32-2.54-.08-1.46-1.22-1.94-2.44l-6.71-17.02c-1.08-2.75-.63-4.51,1.35-5.29,1.02-.4,1.87-.37,2.57.1.7.47,1.32,1.32,1.86,2.55.24-1.54.61-2.79,1.13-3.73s1.42-1.67,2.7-2.18,2.66-.68,4.12-.51,2.4.78,2.82,1.84c.29.75.28,1.46-.04,2.15s-.78,1.15-1.38,1.39c-.22.09-.82.16-1.79.23-.97.06-1.78.22-2.44.48-.9.35-1.53.88-1.92,1.57-.38.69-.55,1.57-.5,2.61.05,1.05.27,2.24.65,3.56s.94,2.9,1.66,4.74Z"/>
      <path class="cls-7" d="M297.49,282.95l.66-.29-1.59-3.61c-.43-.97-.73-1.74-.92-2.31s-.26-1.11-.19-1.61c.05-.51.25-1,.57-1.45s.76-.8,1.31-1.03c.76-.34,1.58-.35,2.45-.05.58.2,1.04.55,1.4,1.06.35.5.75,1.26,1.2,2.27l1.8,4.1,2.2-.97c.85-.37,1.59-.46,2.22-.25.63.21,1.08.63,1.35,1.26.35.81.28,1.51-.21,2.12s-1.34,1.17-2.53,1.69l-1.12.49,4.86,11.06c.41.94.76,1.65,1.05,2.13s.65.81,1.07,1,.96.14,1.61-.14c.35-.15.8-.43,1.35-.82s.99-.66,1.33-.81c.48-.21,1.01-.21,1.57,0s.97.61,1.22,1.19c.43.97.22,1.94-.61,2.92-.83.98-2.24,1.9-4.22,2.77-1.88.83-3.44,1.14-4.69.93s-2.27-.8-3.06-1.79c-.79-.98-1.6-2.41-2.42-4.28l-5.07-11.55-.79.35c-.87.38-1.62.47-2.25.25s-1.09-.63-1.37-1.26-.27-1.25.03-1.87c.3-.61.91-1.12,1.82-1.52Z"/>
      <path class="cls-7" d="M320.26,262.1l-2.7,1.61c-.48.29-1.11.13-1.4-.35l-1.61-2.7c-.24-.4-.73-.62-1.17-.45-.57.21-.78.88-.49,1.38l1.64,2.75c.29.48.13,1.11-.35,1.4l-2.7,1.61c-.4.24-.62.73-.45,1.17.21.57.88.78,1.38.49l2.75-1.64c.48-.29,1.11-.13,1.4.35l1.61,2.7c.24.4.73.62,1.17.45.57-.21.78-.88.49-1.38l-1.64-2.75c-.29-.48-.13-1.11.35-1.4l2.75-1.64c.5-.3.62-.99.22-1.44-.31-.35-.84-.4-1.25-.16Z"/>
    </g>
  </g>
  <g>
    <g>
      <g>
        <path class="cls-3" d="M655.16,344.74c.15-.58.27-1.16.36-1.74,2.41-12.67-1.72-19.27-1.86-20.6-.15-1.4-6-12.15-6.33-8.21-.33,3.94-1.39,5.17-2.17,6.75-.78,1.59-7.2,7.15-8.93,8.18-.94.56-2.29,2-3.34,3.19-2.31,2.27-3.77,5.58-4.43,9.56-1.25,7.55,5.58,14.8,13.23,14.8,6.89,0,11.88-5.97,13.46-11.9h0s0-.02,0-.03Z"/>
        <path class="cls-3" d="M724.93,394.14c-1.32-21.99-11.24-42.9-25.25-59.64-10.7-12.79-24.09-23.1-38.63-31.18-17.37-9.67-36.23-16.83-55.57-21.36-15.55-3.6-31.47-5.74-47.59-5.89-7.97-.12-16.41.29-24.49,2.95-12.18,3.98-25.85,13-28.49,27.88-.97,5.06.92,10.83,3.01,14.96,1.89,3.88,3.24,6.97,3.03,9.36-.1,5.85-7.33,8.13-12.04,8.26-12.02.32-12.46-3.11-24.89,1.77-27.31,10.21-15.78,46.26-5.45,65.02,14.79,26.87,37.16,49.52,63.91,64.54,49.6,27.85,111.73,29.75,158.07-5.14,21.19-15.95,35.88-43.73,34.39-71.52ZM698.83,438.19c-21.85,28.97-55.55,43.45-91.43,43.19-45.11-.33-91.79-18.53-119.91-54.84-9.65-12.46-16.91-26.86-20.4-42.27-2.63-11.56-4.08-28.16,9.89-32.82,12.01-3.69,15.93,2.95,29.26-1.53,11.49-2.92,18.82-15.75,13.3-27.18-2.13-5.37-6.07-9.18-5.84-14.98,1.52-11.29,11.64-18.95,21.36-23.4,7.25-3.28,15-4.44,22.84-4.98,15.84-1.16,31.85.15,47.29,3.84,20.47,4.89,40.38,12.7,57.26,25.48,8.72,6.6,16.53,14.38,23.35,22.91,13.81,17.27,23.35,38.02,24.9,60.25.65,9.3-.14,18.74-2.8,27.7-1.95,6.58-4.92,13.13-9.07,18.62Z"/>
        <g>
          <path class="cls-3" d="M530.46,382.81l15.45,2.38v11.05c0,1.49-.16,2.83-.5,4.09-.38,1.43-.95,2.56-1.7,3.36-1.46,1.54-3.29,2.29-5.62,2.29-1.32,0-2.56-.34-3.79-1.04-1.21-.69-2.12-1.59-2.77-2.75-.24-.49-.44-1.09-.61-1.81-.15-.64-.23-1.14-.27-1.64-.06-.78-.11-1.79-.14-3.01-.03-1.06-.04-2.24-.04-3.51v-9.4M528.96,381.06v11.15c0,1.33.01,2.51.04,3.55.03,1.23.08,2.27.15,3.1.05.66.17,1.27.31,1.87.18.78.42,1.51.75,2.17.79,1.41,1.91,2.53,3.35,3.35,1.45.83,2.96,1.24,4.53,1.24,2.73,0,4.97-.92,6.71-2.76.96-1.02,1.63-2.38,2.06-4.01.35-1.31.55-2.78.55-4.47v-12.34l-18.45-2.85h0Z"/>
          <path class="cls-3" d="M575.24,350.59l22.42-21.24c2.77-2.65,4.16-5.32,4.16-8.01,0-2.24-.82-4.13-2.45-5.68-1.64-1.55-3.78-2.33-6.43-2.33-2.03,0-3.65.43-4.88,1.3-1.22.87-2.7,2.22-4.44,4.04l-36.22,37.77v-31.93c0-3.77-.86-6.57-2.58-8.42-1.72-1.84-3.97-2.76-6.74-2.76s-5.04.93-6.68,2.8c-1.64,1.86-2.45,4.66-2.45,8.39v56.56l18.45,2.85v-6.48l15.09-14.47,10.27,12.33c-2.83-7.36,2.73-17.19,5.71-20.05l-3.24-4.64Z"/>
        </g>
        <path class="cls-3" d="M607.13,424.73l-2.43,12c5.86-1.78,11.93-7.07,14.57-7.89l1.5,2.95-10.05-27.03s-.03.09-.04.12c-.04.12-.2.15-.28.05-.56-.67-2.29-2.27-2.5-2.49-4.41-4.58-8.06-9.84-11.55-15.14,0,0,9.87-8.77,10.21-17.4.34-8.56-4.65-17.38-13.11-18.9-.16-.03-.32-.04-.49-.04-2.27.04-18.78,1.03-16.57,22.03,0,.06.01.12.02.18.15.89,1.47,8.16,3.43,10.37-4.66,3.14-15.08,10.36-16.71,13.33-2.47,4.52-8.22,10.86-1.79,24.82,6.74,14.63,33.73,16.5,45.77,3.06ZM589.47,364.17s1.89-2.45,3.9.88c2.02,3.33-.09,8.71-3.11,11.42,0,0-4.6-7.31-.79-12.3ZM573.38,415.42c-8.06-12.37,12.47-20.75,12.47-20.75l14.62,19.74c-.74,3.09-19.07,13.32-27.09,1.01Z"/>
        <g>
          <path class="cls-3" d="M676.02,437.33l-24.15-59.66c-1.14-2.98-2.07-5.37-2.81-7.16-.74-1.79-1.64-3.46-2.71-5.01-.05-.08-.13-.13-.18-.21l-7.95,22.16,11.19,30.65h-27.62l10.08-28.09-15.74-3.76-20.32,51.58c-.97,2.4-1.66,4.27-2.08,5.61-.42,1.35-.63,2.65-.63,3.91,0,2.19.9,4.14,2.71,5.86,1.81,1.72,3.89,2.59,6.24,2.59,2.78,0,4.77-.81,5.99-2.43s2.69-4.74,4.41-9.36l4.41-11.86h37.59l4.41,11.6c.59,1.43,1.29,3.08,2.11,4.95.82,1.87,1.59,3.26,2.3,4.16.71.9,1.6,1.62,2.65,2.14,1.05.53,2.31.79,3.78.79,2.52,0,4.68-.89,6.46-2.68,1.79-1.79,2.68-3.75,2.68-5.9s-.95-5.36-2.84-9.9Z"/>
          <path class="cls-3" d="M635.6,361.7c1.74,0,3.27.25,4.56.73l-.86,2.4-4.56,12.7-.68,1.9-3.16,8.8-12.75-3.04,2.7-6.85,1.34-3.42.52-1.32.57-1.47c.9-2.3,1.87-4.23,2.88-5.73.71-1.06,1.69-1.99,2.99-2.87.15-.1.29-.21.43-.32.12-.09.22-.18.3-.22,1.51-.85,3.43-1.29,5.72-1.29M635.6,360.2c-2.56,0-4.72.49-6.46,1.48-.31.17-.54.41-.83.6-1.34.9-2.51,1.96-3.4,3.28-1.07,1.6-2.08,3.6-3.03,6.02-.39,1-.75,1.91-1.09,2.79-.49,1.25-.94,2.41-1.34,3.42l-3.33,8.45,15.74,3.76,3.61-10.06h0s.68-1.9.68-1.9l4.56-12.71,1.32-3.69c-1.73-.96-3.87-1.45-6.44-1.45h0Z"/>
        </g>
      </g>
      <g>
        <path class="cls-3" d="M500.14,478.62l-6.41,9.84,18.75-4.37c.9-.21,1.63-.33,2.18-.35.55-.02,1.14.17,1.76.58.82.53,1.32,1.2,1.51,2.01.19.81.06,1.56-.38,2.24-.54.83-1.5,1.37-2.89,1.63l-11.18,2.05.53,16.6c.05,1.16.02,2.12-.09,2.9s-.34,1.45-.71,2.01c-.41.63-1.01,1.01-1.8,1.15s-1.61-.07-2.45-.61c-.79-.52-1.33-1.1-1.6-1.77s-.41-1.39-.38-2.17c.02-.79.05-1.5.08-2.13l.02-14.72-7.56,1.43-3.78,5.8c-.76,1.17-1.6,1.87-2.51,2.09-.91.22-1.78.05-2.62-.5-.49-.32-.87-.75-1.15-1.29s-.4-1.12-.36-1.71c.05-.47.22-.96.49-1.46s.7-1.19,1.28-2.09l13.6-20.87c.75-1.15,1.56-1.85,2.44-2.09.88-.25,1.75-.09,2.62.48.86.56,1.36,1.29,1.52,2.21.16.91-.14,1.95-.9,3.11Z"/>
        <path class="cls-3" d="M522.42,494.68c-.79-.35-1.36-.9-1.71-1.64s-.32-1.55.08-2.44c.36-.81.95-1.34,1.76-1.61.81-.26,1.6-.22,2.36.12s1.29.86,1.64,1.59.34,1.54-.07,2.45-.98,1.44-1.75,1.68-1.55.2-2.31-.15ZM522.61,501.82l-7.36,16.46c-.51,1.14-1.17,1.88-1.97,2.22-.8.34-1.62.33-2.46-.05s-1.38-.97-1.63-1.81c-.25-.83-.13-1.8.36-2.92l7.28-16.29c.5-1.13,1.14-1.86,1.92-2.2s1.58-.32,2.42.05,1.4.97,1.68,1.78.2,1.73-.25,2.74Z"/>
        <path class="cls-3" d="M537.48,525.84l.21-.58c-1.11.63-2.15,1.09-3.12,1.38-.97.3-1.95.43-2.96.41s-2.03-.22-3.1-.6c-1.41-.5-2.61-1.25-3.6-2.27-.99-1.02-1.73-2.24-2.21-3.65s-.69-2.95-.62-4.6c.07-1.65.42-3.35,1.03-5.09,1.3-3.68,3.21-6.23,5.73-7.65,2.52-1.42,5.25-1.61,8.18-.58,1.7.6,3.02,1.39,3.98,2.39s1.78,2.29,2.46,3.88l3.06-8.68c.43-1.21.99-2.03,1.69-2.48.7-.45,1.49-.51,2.38-.2s1.48.84,1.76,1.58.23,1.66-.16,2.77l-9.16,25.94c-.4,1.12-.95,1.87-1.67,2.25s-1.48.42-2.3.13-1.37-.81-1.69-1.58-.29-1.69.09-2.77ZM528.96,513.11c-.56,1.59-.79,3.04-.69,4.33.1,1.3.48,2.38,1.14,3.25s1.5,1.49,2.52,1.85,2.07.43,3.12.19c1.04-.24,2.02-.82,2.92-1.76.9-.93,1.65-2.23,2.24-3.9.55-1.57.77-3,.66-4.31-.11-1.31-.5-2.41-1.16-3.32s-1.51-1.54-2.54-1.9-2.15-.41-3.21-.1c-1.06.31-2.03.96-2.9,1.93-.87.98-1.57,2.22-2.1,3.73Z"/>
        <path class="cls-3" d="M570.08,528.09c-.37,1.68-1.1,3.03-2.18,4.04s-2.49,1.66-4.23,1.92c-1.74.26-3.75.14-6.04-.37s-3.99-1.23-5.4-2.25c-1.41-1.02-2.38-2.11-2.9-3.28s-.67-2.26-.45-3.27c.15-.67.51-1.19,1.09-1.56s1.24-.47,1.97-.31c.64.14,1.1.41,1.37.79s.5.9.69,1.53c.38,1.22.95,2.2,1.7,2.93.75.73,1.88,1.26,3.38,1.59,1.22.27,2.28.22,3.18-.15.9-.37,1.43-.9,1.58-1.6.24-1.07,0-1.94-.7-2.61s-1.93-1.43-3.69-2.29c-1.98-.99-3.57-1.91-4.76-2.77-1.19-.86-2.07-1.85-2.65-2.96-.58-1.11-.72-2.35-.42-3.72.27-1.22.89-2.29,1.86-3.22s2.24-1.55,3.8-1.88,3.35-.28,5.36.17c1.58.35,2.96.83,4.14,1.43s2.14,1.28,2.85,2.01,1.22,1.49,1.51,2.25.36,1.47.22,2.11c-.15.7-.52,1.22-1.08,1.56-.57.34-1.28.42-2.14.23-.62-.14-1.12-.43-1.48-.89s-.74-1.1-1.15-1.94c-.33-.7-.77-1.29-1.31-1.79-.55-.5-1.35-.86-2.42-1.1s-2.07-.21-2.9.09-1.33.81-1.48,1.51c-.14.64,0,1.22.45,1.75s1.09,1.03,1.94,1.49c.85.47,2.02,1.07,3.53,1.81,1.79.88,3.21,1.77,4.26,2.68s1.8,1.86,2.22,2.87c.42,1.01.51,2.07.27,3.18Z"/>
        <path class="cls-3" d="M588.4,513.23c-.04-1.42.3-2.72,1.01-3.9.71-1.18,1.77-2.14,3.18-2.86,1.41-.72,3.09-1.11,5.02-1.16s3.59.27,5.01.95,2.49,1.59,3.21,2.73c.72,1.14,1.1,2.33,1.13,3.58.04,1.71-.48,3.2-1.58,4.5s-2.72,2.62-4.88,3.99c.78.88,1.51,1.71,2.19,2.48s1.33,1.5,1.95,2.17,1.2,1.24,1.71,1.72c.22-.43.55-1.24,1-2.43s.88-2.04,1.28-2.57.99-.8,1.75-.82c.72-.02,1.35.22,1.92.72.56.5.85,1.11.87,1.84.02.67-.19,1.62-.64,2.86s-1.09,2.61-1.95,4.13c.58.47,1.49,1.19,2.74,2.15s2.02,1.61,2.31,1.96.44.82.46,1.42c.02.79-.25,1.47-.81,2.02-.56.56-1.19.84-1.89.86s-1.41-.19-2.1-.63-2.13-1.52-4.36-3.25c-.97.95-1.97,1.74-3.01,2.36-1.04.62-2.17,1.09-3.37,1.41s-2.55.5-4.04.54c-1.9.05-3.62-.19-5.15-.7s-2.81-1.23-3.84-2.15-1.8-1.95-2.32-3.08-.79-2.3-.82-3.49.13-2.19.47-3.15.83-1.83,1.48-2.62,1.44-1.54,2.39-2.26,2.06-1.42,3.32-2.11c-1.18-1.4-2.08-2.66-2.69-3.76-.61-1.1-.94-2.25-.97-3.44ZM595.14,524.01c-1.53.94-2.67,1.87-3.41,2.78s-1.1,1.99-1.07,3.23c.02.7.18,1.37.47,2,.3.63.72,1.22,1.28,1.75s1.19.94,1.92,1.21c.72.27,1.48.4,2.27.38s1.53-.16,2.25-.42c.72-.26,1.41-.63,2.05-1.09.64-.47,1.31-1.04,1.99-1.73-1.39-1.21-2.64-2.42-3.75-3.62-1.11-1.2-2.45-2.69-4-4.48ZM597.31,517.69c1.53-1.03,2.63-1.89,3.31-2.59.68-.7,1-1.52.98-2.48-.02-.94-.39-1.73-1.1-2.35s-1.59-.92-2.64-.89-1.92.38-2.61,1.05c-.69.67-1.03,1.45-1,2.33.01.46.16.94.44,1.46s.62,1.03,1.03,1.54.94,1.15,1.6,1.92Z"/>
        <path class="cls-3" d="M652.3,532.17l-1.93-4.06-13.57,1.09-1.25,4.41c-.49,1.72-.93,2.89-1.32,3.51s-1.09.97-2.09,1.05c-.85.07-1.63-.18-2.33-.75s-1.09-1.25-1.15-2.04c-.04-.46,0-.93.11-1.43s.31-1.19.59-2.09l6.8-22.37c.19-.64.43-1.41.7-2.31.27-.9.58-1.65.92-2.26s.81-1.12,1.41-1.52c.6-.41,1.37-.65,2.29-.72s1.74.04,2.4.35,1.2.72,1.64,1.26.81,1.11,1.12,1.73.72,1.46,1.22,2.5l10.45,20.85c.81,1.59,1.25,2.75,1.31,3.49.06.77-.2,1.51-.8,2.21s-1.35,1.08-2.26,1.16c-.53.04-.99-.02-1.39-.18s-.73-.39-1.02-.7-.6-.78-.95-1.44c-.35-.65-.65-1.23-.91-1.73ZM638.17,523.97l9.98-.8-6.14-13.38-3.84,14.18Z"/>
        <path class="cls-3" d="M669.59,523.66l1.91,4.85c.46,1.18.53,2.17.21,2.97-.32.81-.91,1.38-1.76,1.71s-1.64.3-2.41-.08-1.39-1.16-1.85-2.32l-6.37-16.16c-1.03-2.61-.6-4.28,1.29-5.03.96-.38,1.78-.35,2.44.09.67.44,1.25,1.25,1.77,2.42.23-1.46.58-2.64,1.07-3.54s1.34-1.59,2.56-2.07,2.52-.64,3.91-.48,2.28.74,2.68,1.75c.28.71.27,1.39-.04,2.04s-.74,1.09-1.31,1.31c-.21.08-.78.16-1.7.21-.92.06-1.69.21-2.31.46-.85.34-1.46.83-1.82,1.49-.36.66-.52,1.49-.47,2.48.05,1,.25,2.12.62,3.38.36,1.26.89,2.76,1.58,4.5Z"/>
        <path class="cls-3" d="M680.86,503.87l.63-.28-1.51-3.43c-.4-.92-.7-1.65-.88-2.2s-.24-1.05-.18-1.53c.05-.49.23-.95.54-1.37s.72-.76,1.24-.98c.73-.32,1.5-.33,2.32-.05.55.19.99.53,1.33,1,.33.48.71,1.2,1.14,2.16l1.71,3.89,2.09-.92c.81-.36,1.51-.43,2.1-.24.59.2,1.02.6,1.29,1.19.34.77.27,1.44-.2,2.01s-1.27,1.11-2.4,1.6l-1.07.47,4.61,10.5c.39.89.72,1.57,1,2.02s.61.77,1.02.95.91.14,1.53-.13c.33-.15.76-.41,1.28-.77s.94-.62,1.26-.77c.46-.2.96-.2,1.49,0s.92.58,1.16,1.13c.4.92.21,1.85-.58,2.77s-2.13,1.81-4.01,2.63c-1.79.78-3.27,1.08-4.45.88s-2.15-.76-2.9-1.7-1.52-2.29-2.29-4.06l-4.81-10.96-.75.33c-.82.36-1.54.44-2.14.24s-1.04-.6-1.3-1.2-.25-1.19.03-1.77.86-1.06,1.72-1.44Z"/>
        <path class="cls-3" d="M702.48,484.08l-2.57,1.53c-.46.27-1.05.12-1.33-.34l-1.53-2.57c-.23-.38-.7-.59-1.11-.43-.54.2-.74.84-.46,1.31l1.56,2.61c.27.46.12,1.05-.34,1.33l-2.57,1.53c-.38.23-.59.7-.43,1.11.2.54.84.74,1.31.46l2.61-1.56c.46-.27,1.05-.12,1.33.34l1.53,2.57c.23.38.7.59,1.11.43.54-.2.74-.84.46-1.31l-1.56-2.61c-.27-.46-.12-1.05.34-1.33l2.61-1.56c.47-.28.59-.94.21-1.37-.29-.33-.8-.38-1.18-.15Z"/>
      </g>
    </g>
    <path class="cls-3" d="M629.27,362.53l10.57,2.63.87-2.63s-4.74-3.02-11.43,0Z"/>
    <path class="cls-3" d="M530.1,400.44l16.12.06s-1.87,6.5-8.06,6.16c-6.19-.34-8.06-6.22-8.06-6.22Z"/>
    <line class="cls-2" x1="546.58" y1="391.94" x2="529.78" y2="395.44"/>
    <line class="cls-2" x1="621.62" y1="374.5" x2="635.36" y2="377.78"/>
  </g>
  <g>
    <path class="cls-4" d="M190.54,440.31c.11-.42.2-.84.26-1.25,1.74-9.16-1.24-13.92-1.34-14.89-.11-1.01-4.34-8.78-4.58-5.93-.24,2.85-1,3.73-1.57,4.88-.56,1.15-5.2,5.16-6.45,5.91-.68.4-1.66,1.44-2.41,2.31-1.67,1.64-2.73,4.03-3.2,6.91-.9,5.46,4.03,10.69,9.56,10.69,4.98,0,8.59-4.31,9.73-8.6h0s0-.01,0-.02Z"/>
    <g>
      <polygon class="cls-1" points="166.89 492.04 166.43 493.31 173.71 473.02 166.89 492.04"/>
      <path class="cls-8" d="M180.11,455.2l-8.96-2.21c-.97.65-1.82,1.42-2.46,2.37-.77,1.15-1.5,2.6-2.19,4.35-.28.72-.54,1.38-.79,2.02l11.1,2.65,3.29-9.18Z"/>
      <path class="cls-6" d="M181.06,452.53c-1.25-.69-2.8-1.05-4.65-1.05s-3.41.36-4.67,1.07c-.22.12-.39.29-.6.43l8.96,2.21.96-2.66Z"/>
      <path class="cls-6" d="M166.89,492.04l6.82-19.02-11.37-2.71-14.68,37.27c-.7,1.73-1.2,3.08-1.5,4.05-.3.97-.46,1.91-.46,2.82,0,1.58.65,2.99,1.96,4.24,1.31,1.25,2.81,1.87,4.51,1.87,2,0,3.45-.58,4.33-1.75.88-1.17,1.94-3.42,3.19-6.77l3.19-8.56,3.55-10.16.46-1.27Z"/>
      <path class="cls-4" d="M176.32,465.75h0s.49-1.37.49-1.37l-11.1-2.65c-.35.9-.68,1.74-.97,2.47l-2.4,6.11,11.37,2.71,2.61-7.27Z"/>
      <line class="cls-6" x1="166.43" y1="493.31" x2="162.88" y2="503.47"/>
    </g>
  </g>
</svg>