<svg width="440" height="85" viewBox="0 0 440 85" fill="none" xmlns="http://www.w3.org/2000/svg">
<path d="M72.4601 30.07C70.7801 30.07 69.3401 29.55 68.1401 28.52C66.9401 27.49 66.3501 26.03 66.3501 24.14C66.3501 22.43 66.9601 21.02 68.1901 19.91C69.4201 18.8 70.8401 18.25 72.4601 18.25C74.0801 18.25 75.4101 18.75 76.6201 19.76C77.8301 20.76 78.4401 22.22 78.4401 24.14C78.4401 26.06 77.8501 27.45 76.6701 28.5C75.4901 29.55 74.0901 30.07 72.4601 30.07ZM78.4401 42.56V77.5C78.4401 79.92 77.8601 81.75 76.7101 82.99C75.5601 84.23 74.1001 84.85 72.3301 84.85C70.5601 84.85 69.1201 84.22 68.0101 82.95C66.9001 81.68 66.3501 79.87 66.3501 77.5V42.92C66.3501 40.53 66.9001 38.73 68.0101 37.52C69.1201 36.31 70.5601 35.7 72.3301 35.7C74.1001 35.7 75.5601 36.31 76.7101 37.52C77.8601 38.73 78.4401 40.41 78.4401 42.57V42.56Z" fill="#292F6F"/>
<path d="M124.04 77.9405V76.7404C122.42 78.6004 120.82 80.1105 119.24 81.2805C117.66 82.4505 115.95 83.3305 114.1 83.9405C112.26 84.5505 110.24 84.8505 108.06 84.8505C105.17 84.8505 102.49 84.2405 100.02 83.0105C97.5599 81.7805 95.4199 80.0405 93.6199 77.7605C91.8199 75.4905 90.4499 72.8205 89.5199 69.7505C88.5899 66.6805 88.1299 63.3605 88.1299 59.7905C88.1299 52.2305 89.9699 46.3405 93.6599 42.1205C97.3499 37.9005 102.21 35.7905 108.23 35.7905C111.71 35.7905 114.65 36.3904 117.04 37.5804C119.43 38.7804 121.76 40.6105 124.04 43.0905V25.2505C124.04 22.7705 124.53 20.9005 125.52 19.6305C126.51 18.3605 127.92 17.7305 129.75 17.7305C131.58 17.7305 132.99 18.3105 133.98 19.4805C134.97 20.6505 135.46 22.3705 135.46 24.6405V77.9505C135.46 80.2505 134.93 81.9805 133.87 83.1305C132.81 84.2805 131.43 84.8604 129.75 84.8604C128.07 84.8604 126.73 84.2605 125.65 83.0705C124.57 81.8705 124.03 80.1704 124.03 77.9604L124.04 77.9405ZM100.27 60.1805C100.27 63.4605 100.78 66.2504 101.8 68.5504C102.82 70.8504 104.21 72.5905 105.98 73.7505C107.75 74.9105 109.68 75.5005 111.78 75.5005C113.88 75.5005 115.85 74.9505 117.6 73.8405C119.36 72.7305 120.76 71.0405 121.81 68.7505C122.86 66.4605 123.38 63.6105 123.38 60.1805C123.38 56.9605 122.86 54.2005 121.81 51.8805C120.76 49.5605 119.35 47.7905 117.56 46.5705C115.77 45.3405 113.82 44.7305 111.69 44.7305C109.56 44.7305 107.5 45.3604 105.76 46.6104C104.02 47.8604 102.67 49.6705 101.71 52.0105C100.75 54.3605 100.27 57.0805 100.27 60.1805Z" fill="#292F6F"/>
<path d="M186.52 69.0402C186.52 72.3802 185.71 75.2302 184.08 77.6102C182.46 79.9902 180.06 81.7902 176.88 83.0102C173.71 84.2402 169.85 84.8502 165.3 84.8502C160.75 84.8502 157.24 84.1902 154.14 82.8602C151.04 81.5302 148.75 79.8702 147.28 77.8802C145.8 75.8902 145.07 73.8902 145.07 71.8802C145.07 70.5502 145.54 69.4202 146.49 68.4702C147.43 67.5302 148.63 67.0502 150.08 67.0502C151.35 67.0502 152.32 67.3602 153 67.9802C153.68 68.6002 154.33 69.4702 154.95 70.5902C156.19 72.7402 157.67 74.3502 159.4 75.4202C161.13 76.4802 163.48 77.0102 166.46 77.0102C168.88 77.0102 170.87 76.4702 172.42 75.3902C173.97 74.3102 174.74 73.0802 174.74 71.6902C174.74 69.5602 173.94 68.0102 172.33 67.0402C170.72 66.0702 168.07 65.1402 164.38 64.2502C160.22 63.2202 156.83 62.1302 154.22 61.0002C151.61 59.8602 149.52 58.3702 147.95 56.5102C146.39 54.6502 145.6 52.3602 145.6 49.6502C145.6 47.2302 146.32 44.9402 147.77 42.7902C149.22 40.6402 151.35 38.9202 154.17 37.6302C156.99 36.3502 160.39 35.7002 164.38 35.7002C167.51 35.7002 170.32 36.0202 172.82 36.6702C175.31 37.3202 177.4 38.1902 179.06 39.2802C180.73 40.3702 182 41.5802 182.87 42.9102C183.74 44.2402 184.18 45.5402 184.18 46.8102C184.18 48.2002 183.72 49.3302 182.79 50.2202C181.86 51.1102 180.54 51.5502 178.83 51.5502C177.59 51.5502 176.53 51.2002 175.66 50.4902C174.79 49.7802 173.79 48.7202 172.67 47.3002C171.75 46.1202 170.68 45.1702 169.44 44.4702C168.2 43.7602 166.52 43.4102 164.39 43.4102C162.26 43.4102 160.39 43.8702 158.94 44.8002C157.49 45.7302 156.77 46.8902 156.77 48.2802C156.77 49.5502 157.3 50.5902 158.36 51.4002C159.42 52.2102 160.85 52.8802 162.66 53.4102C164.46 53.9402 166.94 54.5902 170.1 55.3602C173.85 56.2802 176.91 57.3702 179.29 58.6402C181.67 59.9102 183.47 61.4102 184.69 63.1302C185.92 64.8602 186.53 66.8302 186.53 69.0402H186.52Z" fill="#292F6F"/>
<path d="M208.79 32.5997C208.79 29.8497 209.51 27.3497 210.94 25.0897C212.37 22.8297 214.47 21.0397 217.25 19.7097C220.02 18.3797 223.29 17.7197 227.04 17.7197C230.79 17.7197 233.98 18.4097 236.69 19.7997C239.41 21.1897 241.44 22.9997 242.78 25.2497C244.12 27.4897 244.79 29.8297 244.79 32.2497C244.79 35.5597 243.7 38.4297 241.51 40.8797C239.33 43.3297 236.11 45.8197 231.86 48.3597C233.34 50.0997 234.71 51.7397 235.98 53.2697C237.25 54.7997 238.47 56.2397 239.66 57.5697C240.84 58.8997 241.92 60.0297 242.89 60.9797C243.33 60.1497 244.02 58.5997 244.95 56.3297C245.88 54.0597 246.75 52.4197 247.56 51.4197C248.37 50.4197 249.52 49.9097 250.99 49.9097C252.38 49.9097 253.6 50.3997 254.67 51.3897C255.74 52.3797 256.26 53.5797 256.26 54.9997C256.26 56.2997 255.8 58.1397 254.89 60.5097C253.97 62.8897 252.65 65.5197 250.9 68.4097C251.99 69.3497 253.73 70.7897 256.1 72.7097C258.48 74.6297 259.94 75.9297 260.48 76.6297C261.02 77.3297 261.3 78.2497 261.3 79.3997C261.3 80.9297 260.75 82.2297 259.64 83.2697C258.53 84.3197 257.3 84.8397 255.94 84.8397C254.58 84.8397 253.21 84.3997 251.91 83.5097C250.61 82.6197 247.85 80.4497 243.63 76.9997C241.71 78.7997 239.73 80.2797 237.67 81.4297C235.62 82.5797 233.42 83.4397 231.07 83.9997C228.72 84.5597 226.1 84.8397 223.21 84.8397C219.52 84.8397 216.21 84.2997 213.27 83.2197C210.33 82.1397 207.89 80.6897 205.94 78.8597C203.99 77.0297 202.55 74.9997 201.6 72.7697C200.66 70.5397 200.18 68.2797 200.18 65.9697C200.18 63.6597 200.53 61.7297 201.24 59.8797C201.95 58.0397 202.94 56.3697 204.23 54.8797C205.51 53.3897 207.09 51.9697 208.97 50.6297C210.84 49.2897 213.02 47.9797 215.5 46.7097C213.29 43.9397 211.61 41.4597 210.47 39.2897C209.33 37.1197 208.77 34.8797 208.77 32.5797L208.79 32.5997ZM221.32 53.7997C218.31 55.5397 216.06 57.2797 214.57 59.0197C213.08 60.7597 212.33 62.8297 212.33 65.2197C212.33 66.5797 212.6 67.8797 213.15 69.1197C213.7 70.3597 214.49 71.5097 215.54 72.5697C216.59 73.6297 217.81 74.4397 219.19 75.0097C220.58 75.5697 222.04 75.8497 223.57 75.8497C225.1 75.8497 226.54 75.6097 227.95 75.1397C229.36 74.6697 230.71 73.9997 231.98 73.1297C233.25 72.2597 234.56 71.1697 235.92 69.8797C233.29 67.4597 230.93 65.0597 228.84 62.6797C226.74 60.2997 224.24 57.3397 221.31 53.7997H221.32ZM225.84 41.6697C228.85 39.7497 231.03 38.1397 232.37 36.8197C233.71 35.5097 234.38 33.9197 234.38 32.0597C234.38 30.1997 233.71 28.6897 232.37 27.4597C231.03 26.2197 229.34 25.5997 227.3 25.5997C225.26 25.5997 223.56 26.2297 222.19 27.4997C220.82 28.7697 220.13 30.2597 220.13 31.9697C220.13 32.8597 220.39 33.8097 220.9 34.8297C221.42 35.8497 222.06 36.8597 222.83 37.8597C223.6 38.8597 224.6 40.1297 225.84 41.6697Z" fill="#F05D51"/>
<path d="M357.99 67.4002V77.5002C357.99 79.9502 357.41 81.7902 356.26 83.0102C355.11 84.2402 353.65 84.8502 351.88 84.8502C350.11 84.8502 348.71 84.2302 347.58 82.9902C346.46 81.7502 345.9 79.9202 345.9 77.5002V43.8502C345.9 38.4202 347.86 35.7002 351.79 35.7002C353.8 35.7002 355.24 36.3302 356.13 37.6002C357.02 38.8702 357.5 40.7402 357.59 43.2202C359.04 40.7402 360.52 38.8702 362.04 37.6002C363.56 36.3302 365.59 35.7002 368.13 35.7002C370.67 35.7002 373.13 36.3302 375.52 37.6002C377.91 38.8702 379.11 40.5502 379.11 42.6502C379.11 44.1302 378.6 45.3402 377.58 46.3002C376.56 47.2602 375.46 47.7402 374.28 47.7402C373.84 47.7402 372.77 47.4702 371.07 46.9202C369.37 46.3702 367.87 46.1002 366.58 46.1002C364.81 46.1002 363.36 46.5602 362.24 47.4902C361.12 48.4202 360.25 49.8002 359.63 51.6302C359.01 53.4602 358.58 55.6402 358.35 58.1602C358.11 60.6802 358 63.7602 358 67.3902L357.99 67.4002Z" fill="#292F6F"/>
<path d="M387.48 36.7603H388.81V29.5003C388.81 27.5503 388.86 26.0203 388.96 24.9203C389.06 23.8103 389.35 22.8603 389.82 22.0603C390.29 21.2303 390.97 20.5603 391.86 20.0503C392.75 19.5303 393.73 19.2803 394.83 19.2803C396.36 19.2803 397.75 19.8603 398.99 21.0103C399.82 21.7803 400.34 22.7103 400.56 23.8203C400.78 24.9303 400.89 26.5003 400.89 28.5403V36.7803H405.32C407.03 36.7803 408.34 37.1903 409.24 38.0003C410.14 38.8103 410.59 39.8503 410.59 41.1203C410.59 42.7403 409.95 43.8803 408.66 44.5303C407.38 45.1803 405.54 45.5003 403.15 45.5003H400.89V67.7303C400.89 69.6203 400.96 71.0703 401.09 72.0903C401.22 73.1103 401.58 73.9303 402.15 74.5703C402.73 75.2003 403.66 75.5203 404.96 75.5203C405.67 75.5203 406.63 75.3903 407.84 75.1403C409.05 74.8903 409.99 74.7603 410.67 74.7603C411.64 74.7603 412.52 75.1503 413.3 75.9303C414.08 76.7103 414.47 77.6803 414.47 78.8303C414.47 80.7803 413.41 82.2703 411.28 83.3003C409.15 84.3303 406.1 84.8503 402.11 84.8503C398.33 84.8503 395.47 84.2203 393.52 82.9503C391.57 81.6803 390.3 79.9203 389.69 77.6803C389.08 75.4403 388.78 72.4403 388.78 68.6903V45.4903H387.19C385.45 45.4903 384.12 45.0803 383.2 44.2503C382.28 43.4203 381.83 42.3803 381.83 41.1103C381.83 39.8403 382.31 38.8003 383.27 37.9903C384.23 37.1803 385.62 36.7703 387.45 36.7703L387.48 36.7603Z" fill="#292F6F"/>
<path d="M437.12 13.1995H429.35C427.96 13.1995 426.83 12.0695 426.83 10.6795V2.90951C426.83 1.74951 426.06 0.669508 424.92 0.469508C423.44 0.199508 422.15 1.3395 422.15 2.7695V10.6795C422.15 12.0695 421.02 13.1995 419.63 13.1995H411.86C410.7 13.1995 409.63 13.9695 409.42 15.1095C409.15 16.5895 410.29 17.8795 411.72 17.8795H419.63C421.02 17.8795 422.15 19.0095 422.15 20.3995V28.1695C422.15 29.3195 422.92 30.3995 424.06 30.6095C425.54 30.8795 426.83 29.7395 426.83 28.3095V20.3995C426.83 19.0095 427.96 17.8795 429.35 17.8795H437.26C438.69 17.8795 439.83 16.5795 439.56 15.1095C439.35 13.9695 438.27 13.1995 437.12 13.1995Z" fill="#292F6F"/>
<path d="M1.03999 81.5703C1.59999 82.5703 2.39999 83.3703 3.42999 83.9603C4.45999 84.5503 5.54 84.8503 6.66 84.8503C8.61 84.8503 10.2 84.1903 11.44 82.8803C12.13 82.1503 12.6 81.1803 12.91 80.0303H0.5C0.63 80.5903 0.799999 81.1103 1.03 81.5803L1.03999 81.5703Z" fill="#292F6F"/>
<path d="M0.289932 78.6903C0.329932 79.1603 0.409933 79.6003 0.509933 80.0203H12.9199C13.1699 79.0903 13.3099 78.0403 13.3099 76.8303V73.8003L0.189941 76.4803C0.209941 77.3503 0.249932 78.1003 0.289932 78.6903Z" fill="#F05D51"/>
<path d="M0.149902 73.9503C0.149902 74.9003 0.159901 75.7403 0.179901 76.4803L13.2999 73.8002V68.0403L0.149902 66.0103V73.9602V73.9503Z" fill="#F5CD25"/>
<path d="M54.4799 75.4805C53.8299 74.1105 52.8599 72.5105 51.5599 70.6805L33.1399 44.2905L49.1199 29.1505C51.0999 27.2605 52.0899 25.3605 52.0899 23.4405C52.0899 21.8505 51.5099 20.5005 50.3399 19.3905C49.1699 18.2805 47.6499 17.7305 45.7599 17.7305C44.3099 17.7305 43.1599 18.0405 42.2799 18.6605C41.4099 19.2805 40.3499 20.2405 39.1099 21.5405L13.2999 48.4604V25.7005C13.2999 23.0105 12.6899 21.0105 11.4599 19.7005C10.2299 18.3905 8.62991 17.7305 6.65991 17.7305C4.68991 17.7305 3.0699 18.3905 1.8999 19.7205C0.729902 21.0505 0.149902 23.0405 0.149902 25.7005V66.0204L13.2999 68.0504V63.4305L24.0599 53.1104L39.5999 77.0204C40.2199 78.0804 40.9299 79.2605 41.7299 80.5605C42.5299 81.8605 43.4999 82.9005 44.6499 83.6805C45.7999 84.4605 47.2899 84.8505 49.1199 84.8505C51.0699 84.8505 52.6099 84.3205 53.7499 83.2605C54.8899 82.2005 55.4499 80.9405 55.4499 79.5005C55.4499 78.2005 55.1299 76.8704 54.4799 75.4904V75.4805Z" fill="#292F6F"/>
<path d="M310.4 21.3197L301.69 19.1797C300.75 19.8097 299.93 20.5597 299.3 21.4797C298.55 22.5997 297.84 24.0097 297.17 25.7097C296.89 26.4097 296.65 27.0497 296.4 27.6697L307.19 30.2397L310.39 21.3197H310.4Z" fill="#F5CD25"/>
<path d="M311.33 18.73C310.11 18.06 308.61 17.71 306.81 17.71C305.01 17.71 303.5 18.06 302.27 18.75C302.06 18.87 301.89 19.04 301.69 19.17L310.4 21.31L311.33 18.72V18.73Z" fill="#292F6F"/>
<path d="M335.19 71.8703L318.23 29.9803C317.43 27.8803 316.78 26.2103 316.26 24.9503C315.74 23.7003 315.11 22.5203 314.36 21.4303C314.32 21.3803 314.27 21.3403 314.23 21.2803L308.65 36.8403L316.51 58.3603H297.12L304.19 38.6403L293.14 36.0003L278.87 72.2203C278.19 73.9003 277.7 75.2203 277.41 76.1603C277.11 77.1003 276.97 78.0203 276.97 78.9103C276.97 80.4403 277.6 81.8203 278.87 83.0303C280.14 84.2403 281.6 84.8503 283.25 84.8503C285.2 84.8503 286.6 84.2803 287.46 83.1503C288.32 82.0203 289.35 79.8203 290.56 76.5703L293.66 68.2503H320.05L323.15 76.4003C323.56 77.4003 324.06 78.5603 324.63 79.8803C325.21 81.1903 325.74 82.1703 326.25 82.8003C326.75 83.4303 327.37 83.9403 328.11 84.3103C328.85 84.6803 329.73 84.8603 330.77 84.8603C332.54 84.8603 334.05 84.2303 335.31 82.9803C336.56 81.7303 337.19 80.3503 337.19 78.8403C337.19 77.3303 336.53 75.0803 335.2 71.8903L335.19 71.8703Z" fill="#292F6F"/>
<path d="M306.72 31.5797L307.2 30.2497L296.41 27.6797C296.07 28.5597 295.75 29.3697 295.47 30.0797L293.13 36.0097L304.18 38.6497L306.71 31.5797H306.72Z" fill="#F05D51"/>
</svg>
